<?xml version="1.0" encoding="UTF-8" standalone="no"?><!DOCTYPE svg PUBLIC "-//W3C//DTD SVG 1.1//EN" "http://www.w3.org/Graphics/SVG/1.1/DTD/svg11.dtd"><svg width="100%" height="100%" viewBox="0 0 200 200" version="1.1" xmlns="http://www.w3.org/2000/svg" xmlns:xlink="http://www.w3.org/1999/xlink" xml:space="preserve" xmlns:serif="http://www.serif.com/" style="fill-rule:evenodd;clip-rule:evenodd;stroke-linejoin:round;stroke-miterlimit:2;"><rect id="Artboard3" x="0" y="0" width="200" height="200" style="fill:none;"/><path d="M99.931,19.31c0.106,-0.002 0.212,0 0.317,0.004l0.007,0l0.024,0.002l0.2,0.015l0.1,0.012l0.038,0.003l0.029,0.005c0.224,0.029 0.446,0.073 0.665,0.132l0.018,0.005l0.013,0.004c0.226,0.062 0.448,0.141 0.664,0.236l0.008,0.003l0.006,0.003c0.215,0.094 0.424,0.204 0.625,0.331l0.017,0.01l0.013,0.009c0.192,0.121 0.377,0.257 0.553,0.408l0.031,0.024l0.028,0.026c0.085,0.072 0.168,0.15 0.249,0.23l35.35,35.351l-7.071,7.071l-26.815,-26.815l0,139.313c-0.019,0.755 -0.164,1.483 -0.493,2.167c-0.279,0.579 -0.671,1.102 -1.146,1.534c-3.208,2.915 -8.255,0.504 -8.361,-3.701l0,-139.313l-26.815,26.815l-7.071,-7.071l35.35,-35.351l0.048,-0.045l0.031,-0.031l0.039,-0.035l0.069,-0.066l0.136,-0.117l0.029,-0.026l0.01,-0.007c0.087,-0.072 0.176,-0.141 0.268,-0.205l0.014,-0.011l0.023,-0.015c0.197,-0.139 0.402,-0.262 0.613,-0.368l0.001,-0.001c0.223,-0.112 0.452,-0.207 0.686,-0.284l0.009,-0.004l0.013,-0.003c0.221,-0.072 0.447,-0.129 0.675,-0.169l0.033,-0.006l0.035,-0.005c0.109,-0.018 0.217,-0.032 0.326,-0.043l0.003,-0.001l0.015,-0.001l0.22,-0.015l0.084,-0.002l0.046,-0.003l0.041,0.001Z" style="fill:#fff;"/></svg>